# xmcd
#
# Track frame offsets:
#	150
#	18402
#	33155
#	44067
#	52125
#	66465
#	82235
#	102217
#	110757
#	125232
#	135557
#	146970
#	161884
#	187740
#	198282
#	211105
#	222695
#	238207
#	248505
#	267375
#	282287
#	291187
#	304862
#
# Disc length: 4170 seconds
#
# Revision: 0
# Processed by: cddbd v1.5.2PL0 Copyright (c) Steve Scherf et al.
# Submitted via: audiograbber 1.83.01
#
DISCID=78104817
DTITLE=Marty Robbins - Gunfighter Ballads And Trail Songs/More Gunfighter Balla
DTITLE=ds And Trail Songs
DYEAR=1996
DGENRE=Country
TTITLE0=Big Iron
TTITLE1=Cool Water
TTITLE2=Billy The Kid
TTITLE3=A Hundred And Sixty Acres
TTITLE4=They're Hanging Me Tonight
TTITLE5=The Strawberry Roan
TTITLE6=El Paso
TTITLE7=In The Valley
TTITLE8=The Master's Call
TTITLE9=Running Gun
TTITLE10=The Little Green Valley
TTITLE11=Utah Carol
TTITLE12=San Angelo
TTITLE13=Prairie Fire
TTITLE14=The Streets Of Laredo
TTITLE15=Song Of The Bandit
TTITLE16=I've Got No Use For The Women
TTITLE17=Five Brothers
TTITLE18=Little Joe The Wrangler
TTITLE19=Ride, Cowboy Ride
TTITLE20=This Peaceful Sod
TTITLE21=She Was Young And She Was Pretty
TTITLE22=My Love
EXTD=YEAR: 1996
EXTT0=
EXTT1=
EXTT2=
EXTT3=
EXTT4=
EXTT5=
EXTT6=
EXTT7=
EXTT8=
EXTT9=
EXTT10=
EXTT11=
EXTT12=
EXTT13=
EXTT14=
EXTT15=
EXTT16=
EXTT17=
EXTT18=
EXTT19=
EXTT20=
EXTT21=
EXTT22=
PLAYORDER=
